Oswald--700.ufo
<glyph name="five" format="1">
  <advance width="1084"/>
  <unicode hex="0035"/>
  <outline>
    <contour>
      <point x="550" y="-30" type="curve" smooth="yes"/>
      <point x="940" y="-30"/>
      <point x="1005" y="228"/>
      <point x="1005" y="581" type="curve" smooth="yes"/>
      <point x="1005" y="933"/>
      <point x="871" y="1133"/>
      <point x="616" y="1108" type="curve" smooth="yes"/>
      <point x="527" y="1100"/>
      <point x="443" y="1068"/>
      <point x="413" y="1031" type="curve"/>
      <point x="433" y="1371" type="line"/>
      <point x="933" y="1371" type="line"/>
      <point x="933" y="1658" type="line"/>
      <point x="156" y="1658" type="line"/>
      <point x="127" y="704" type="line"/>
      <point x="424" y="704" type="line"/>
      <point x="440" y="805"/>
      <point x="483" y="855"/>
      <point x="554" y="855" type="curve" smooth="yes"/>
      <point x="666" y="855"/>
      <point x="682" y="729"/>
      <point x="682" y="570" type="curve" smooth="yes"/>
      <point x="682" y="357"/>
      <point x="681" y="229"/>
      <point x="572" y="225" type="curve" smooth="yes"/>
      <point x="467" y="220"/>
      <point x="447" y="300"/>
      <point x="447" y="487" type="curve"/>
      <point x="116" y="487" type="line"/>
      <point x="116" y="178"/>
      <point x="187" y="-30"/>
    </contour>
  </outline>
</glyph>
<glyph name="D" format="1">
  <advance width="1196"/>
  <unicode hex="0044"/>
  <outline>
    <contour>
      <point x="488" y="254" type="line"/>
      <point x="488" y="1402" type="line"/>
      <point x="543" y="1402" type="line" smooth="yes"/>
      <point x="706" y="1402"/>
      <point x="721" y="1344"/>
      <point x="721" y="1194" type="curve" smooth="yes"/>
      <point x="721" y="481" type="line" smooth="yes"/>
      <point x="721" y="326"/>
      <point x="712" y="254"/>
      <point x="544" y="254" type="curve" smooth="yes"/>
    </contour>
    <contour>
      <point x="122" y="0" type="line"/>
      <point x="544" y="0" type="line" smooth="yes"/>
      <point x="971" y="0"/>
      <point x="1097" y="160"/>
      <point x="1097" y="535" type="curve" smooth="yes"/>
      <point x="1097" y="1133" type="line" smooth="yes"/>
      <point x="1097" y="1505"/>
      <point x="973" y="1658"/>
      <point x="539" y="1658" type="curve" smooth="yes"/>
      <point x="122" y="1658" type="line"/>
    </contour>
  </outline>
</glyph>
<glyph name="G" format="1">
  <advance width="1190"/>
  <unicode hex="0047"/>
  <outline>
    <contour>
      <point x="555" y="-24" type="curve" smooth="yes"/>
      <point x="701" y="-24"/>
      <point x="780" y="45"/>
      <point x="822" y="139" type="curve"/>
      <point x="843" y="0" type="line"/>
      <point x="1086" y="0" type="line"/>
      <point x="1086" y="862" type="line"/>
      <point x="605" y="862" type="line"/>
      <point x="605" y="643" type="line"/>
      <point x="755" y="643" type="line"/>
      <point x="755" y="457" type="line" smooth="yes"/>
      <point x="755" y="339"/>
      <point x="725" y="236"/>
      <point x="611" y="236" type="curve" smooth="yes"/>
      <point x="498" y="236"/>
      <point x="474" y="335"/>
      <point x="474" y="450" type="curve" smooth="yes"/>
      <point x="474" y="1209" type="line" smooth="yes"/>
      <point x="474" y="1313"/>
      <point x="482" y="1422"/>
      <point x="602" y="1422" type="curve" smooth="yes"/>
      <point x="718" y="1422"/>
      <point x="724" y="1329"/>
      <point x="724" y="1223" type="curve" smooth="yes"/>
      <point x="724" y="1090" type="line"/>
      <point x="1082" y="1090" type="line"/>
      <point x="1082" y="1195" type="line" smooth="yes"/>
      <point x="1082" y="1487"/>
      <point x="964" y="1681"/>
      <point x="597" y="1681" type="curve" smooth="yes"/>
      <point x="219" y="1681"/>
      <point x="99" y="1457"/>
      <point x="99" y="1102" type="curve" smooth="yes"/>
      <point x="99" y="551" type="line" smooth="yes"/>
      <point x="99" y="207"/>
      <point x="212" y="-24"/>
    </contour>
  </outline>
</glyph>
<glyph name="J" format="1">
  <advance width="715"/>
  <unicode hex="004A"/>
  <outline>
    <contour>
      <point x="26" y="-40" type="line"/>
      <point x="204" y="-40" type="line" smooth="yes"/>
      <point x="505" y="-40"/>
      <point x="587" y="97"/>
      <point x="592" y="369" type="curve"/>
      <point x="592" y="1658" type="line"/>
      <point x="226" y="1658" type="line"/>
      <point x="226" y="383" type="line" smooth="yes"/>
      <point x="226" y="242"/>
      <point x="176" y="213"/>
      <point x="26" y="215" type="curve"/>
    </contour>
  </outline>
</glyph>
<glyph name="M" format="1">
  <advance width="1441"/>
  <unicode hex="004D"/>
  <outline>
    <contour>
      <point x="117" y="0" type="line"/>
      <point x="382" y="0" type="line"/>
      <point x="407" y="1108" type="line"/>
      <point x="611" y="0" type="line"/>
      <point x="840" y="0" type="line"/>
      <point x="1035" y="1100" type="line"/>
      <point x="1062" y="0" type="line"/>
      <point x="1324" y="0" type="line"/>
      <point x="1297" y="1658" type="line"/>
      <point x="918" y="1658" type="line"/>
      <point x="720" y="688" type="line"/>
      <point x="536" y="1658" type="line"/>
      <point x="144" y="1658" type="line"/>
    </contour>
  </outline>
</glyph>
<glyph name="q" format="1">
  <advance width="1033"/>
  <unicode hex="0071"/>
  <outline>
    <contour>
      <point x="597" y="-390" type="line"/>
      <point x="931" y="-390" type="line"/>
      <point x="931" y="1184" type="line"/>
      <point x="597" y="1184" type="line"/>
      <point x="597" y="1105" type="line"/>
      <point x="529" y="1165"/>
      <point x="450" y="1204"/>
      <point x="361" y="1204" type="curve" smooth="yes"/>
      <point x="176" y="1204"/>
      <point x="86" y="1046"/>
      <point x="86" y="829" type="curve" smooth="yes"/>
      <point x="86" y="348" type="line" smooth="yes"/>
      <point x="86" y="101"/>
      <point x="184" y="-21"/>
      <point x="361" y="-21" type="curve" smooth="yes"/>
      <point x="443" y="-20"/>
      <point x="523" y="22"/>
      <point x="597" y="96" type="curve"/>
    </contour>
    <contour>
      <point x="507" y="194" type="curve" smooth="yes"/>
      <point x="445" y="194"/>
      <point x="421" y="255"/>
      <point x="421" y="326" type="curve" smooth="yes"/>
      <point x="421" y="866" type="line" smooth="yes"/>
      <point x="421" y="937"/>
      <point x="447" y="994"/>
      <point x="509" y="994" type="curve" smooth="yes"/>
      <point x="538" y="994"/>
      <point x="567" y="982"/>
      <point x="597" y="966" type="curve"/>
      <point x="597" y="227" type="line"/>
      <point x="563" y="206"/>
      <point x="531" y="194"/>
    </contour>
  </outline>
</glyph>
<glyph name="t" format="1">
  <advance width="724"/>
  <unicode hex="0074"/>
  <outline>
    <contour>
      <point x="440" y="-14" type="curve" smooth="yes"/>
      <point x="552" y="-18"/>
      <point x="629" y="-4"/>
      <point x="672" y="3" type="curve"/>
      <point x="672" y="266" type="line"/>
      <point x="664" y="265"/>
      <point x="623" y="255"/>
      <point x="583" y="258" type="curve" smooth="yes"/>
      <point x="520" y="260"/>
      <point x="476" y="287"/>
      <point x="476" y="354" type="curve" smooth="yes"/>
      <point x="476" y="966" type="line"/>
      <point x="646" y="966" type="line"/>
      <point x="646" y="1184" type="line"/>
      <point x="476" y="1184" type="line"/>
      <point x="476" y="1543" type="line"/>
      <point x="139" y="1543" type="line"/>
      <point x="139" y="1184" type="line"/>
      <point x="26" y="1184" type="line"/>
      <point x="26" y="966" type="line"/>
      <point x="139" y="966" type="line"/>
      <point x="139" y="414" type="line" smooth="yes"/>
      <point x="139" y="192"/>
      <point x="177" y="-5"/>
    </contour>
  </outline>
</glyph>
<glyph name="asciitilde" format="1">
  <advance width="989"/>
  <unicode hex="007E"/>
  <outline>
    <contour>
      <point x="672" y="682" type="curve" smooth="yes"/>
      <point x="767" y="682"/>
      <point x="874" y="794"/>
      <point x="919" y="894" type="curve"/>
      <point x="803" y="1014" type="line"/>
      <point x="757" y="963"/>
      <point x="701" y="917"/>
      <point x="664" y="917" type="curve" smooth="yes"/>
      <point x="589" y="917"/>
      <point x="441" y="1036"/>
      <point x="324" y="1036" type="curve" smooth="yes"/>
      <point x="236" y="1036"/>
      <point x="133" y="931"/>
      <point x="82" y="844" type="curve"/>
      <point x="187" y="705" type="line"/>
      <point x="233" y="768"/>
      <point x="297" y="803"/>
      <point x="328" y="803" type="curve" smooth="yes"/>
      <point x="406" y="803"/>
      <point x="555" y="682"/>
    </contour>
  </outline>
</glyph>
<glyph name="exclamdown" format="1">
  <advance width="485"/>
  <unicode hex="00A1"/>
  <outline>
    <contour>
      <point x="75" y="-318" type="line"/>
      <point x="407" y="-318" type="line"/>
      <point x="311" y="915" type="line"/>
      <point x="195" y="915" type="line"/>
    </contour>
    <contour>
      <point x="97" y="1025" type="line"/>
      <point x="413" y="1025" type="line"/>
      <point x="413" y="1336" type="line"/>
      <point x="97" y="1336" type="line"/>
    </contour>
  </outline>
</glyph>
<glyph name="Eth" format="1">
  <advance width="1146"/>
  <unicode hex="00D0"/>
  <outline>
    <contour>
      <point x="472" y="254" type="line"/>
      <point x="472" y="758" type="line"/>
      <point x="555" y="758" type="line"/>
      <point x="555" y="941" type="line"/>
      <point x="472" y="941" type="line"/>
      <point x="472" y="1402" type="line"/>
      <point x="527" y="1402" type="line" smooth="yes"/>
      <point x="690" y="1402"/>
      <point x="705" y="1344"/>
      <point x="705" y="1194" type="curve" smooth="yes"/>
      <point x="705" y="481" type="line" smooth="yes"/>
      <point x="705" y="326"/>
      <point x="696" y="254"/>
      <point x="528" y="254" type="curve" smooth="yes"/>
    </contour>
    <contour>
      <point x="106" y="0" type="line"/>
      <point x="528" y="0" type="line" smooth="yes"/>
      <point x="956" y="0"/>
      <point x="1081" y="160"/>
      <point x="1081" y="535" type="curve" smooth="yes"/>
      <point x="1081" y="1133" type="line" smooth="yes"/>
      <point x="1081" y="1505"/>
      <point x="957" y="1658"/>
      <point x="523" y="1658" type="curve" smooth="yes"/>
      <point x="106" y="1658" type="line"/>
      <point x="106" y="941" type="line"/>
      <point x="16" y="941" type="line"/>
      <point x="16" y="758" type="line"/>
      <point x="106" y="758" type="line"/>
    </contour>
  </outline>
</glyph>
<glyph name="oslash" format="1">
  <advance width="977"/>
  <unicode hex="00F8"/>
  <outline>
    <contour>
      <point x="214" y="-185" type="line"/>
      <point x="830" y="1348" type="line"/>
      <point x="751" y="1380" type="line"/>
      <point x="138" y="-153" type="line"/>
    </contour>
    <component base="o"/>
  </outline>
</glyph>
<glyph name="circumflex" format="1">
  <advance width="829"/>
  <unicode hex="02C6"/>
  <outline>
    <contour>
      <point x="90" y="1258" type="line"/>
      <point x="334" y="1258" type="line"/>
      <point x="423" y="1509" type="line"/>
      <point x="512" y="1258" type="line"/>
      <point x="757" y="1258" type="line"/>
      <point x="558" y="1658" type="line"/>
      <point x="283" y="1658" type="line"/>
    </contour>
  </outline>
</glyph>
<glyph name="caron" format="1">
  <advance width="823"/>
  <unicode hex="02C7"/>
  <outline>
    <contour>
      <point x="248" y="1278" type="line"/>
      <point x="569" y="1278" type="line"/>
      <point x="751" y="1658" type="line"/>
      <point x="514" y="1658" type="line"/>
      <point x="409" y="1435" type="line"/>
      <point x="307" y="1658" type="line"/>
      <point x="71" y="1658" type="line"/>
    </contour>
  </outline>
</glyph>
<glyph name="uni0311" format="1">
  <advance width="667"/>
  <unicode hex="0311"/>
  <outline>
    <contour>
      <point x="55" y="1400" type="curve"/>
      <point x="201" y="1400" type="line"/>
      <point x="201" y="1483"/>
      <point x="232" y="1522"/>
      <point x="319" y="1522" type="curve" smooth="yes"/>
      <point x="406" y="1522"/>
      <point x="436" y="1484"/>
      <point x="436" y="1400" type="curve"/>
      <point x="582" y="1400" type="line"/>
      <point x="582" y="1563"/>
      <point x="488" y="1658"/>
      <point x="319" y="1658" type="curve" smooth="yes"/>
      <point x="149" y="1658"/>
      <point x="55" y="1562"/>
    </contour>
  </outline>
</glyph>
<glyph name="afii10021" format="1">
  <advance width="1420"/>
  <unicode hex="0414"/>
  <outline>
    <contour>
      <point x="36" y="-358" type="line"/>
      <point x="291" y="-358" type="line"/>
      <point x="311" y="0" type="line"/>
      <point x="1120" y="0" type="line"/>
      <point x="1140" y="-358" type="line"/>
      <point x="1384" y="-358" type="line"/>
      <point x="1384" y="262" type="line"/>
      <point x="1195" y="262" type="line"/>
      <point x="1195" y="1658" type="line"/>
      <point x="423" y="1658" type="line"/>
      <point x="380" y="1085" type="line" smooth="yes"/>
      <point x="341" y="522"/>
      <point x="239" y="314"/>
      <point x="85" y="262" type="curve"/>
      <point x="36" y="262" type="line"/>
    </contour>
    <contour>
      <point x="429" y="262" type="line"/>
      <point x="535" y="357"/>
      <point x="648" y="458"/>
      <point x="682" y="1046" type="curve" smooth="yes"/>
      <point x="701" y="1398" type="line"/>
      <point x="853" y="1398" type="line"/>
      <point x="853" y="262" type="line"/>
    </contour>
  </outline>
</glyph>
<glyph name="afii10030" format="1">
  <advance width="1441"/>
  <unicode hex="041C"/>
  <outline>
    <contour>
      <point x="117" y="0" type="line"/>
      <point x="381" y="0" type="line"/>
      <point x="403" y="1080" type="line"/>
      <point x="633" y="0" type="line"/>
      <point x="818" y="0" type="line"/>
      <point x="1038" y="1073" type="line"/>
      <point x="1063" y="0" type="line"/>
      <point x="1324" y="0" type="line"/>
      <point x="1297" y="1658" type="line"/>
      <point x="923" y="1658" type="line"/>
      <point x="720" y="708" type="line"/>
      <point x="531" y="1658" type="line"/>
      <point x="144" y="1658" type="line"/>
    </contour>
  </outline>
</glyph>
<glyph name="afii10041" format="1">
  <advance width="1239"/>
  <unicode hex="0427"/>
  <outline>
    <contour>
      <point x="744" y="0" type="line"/>
      <point x="1111" y="0" type="line"/>
      <point x="1111" y="1658" type="line"/>
      <point x="744" y="1658" type="line"/>
      <point x="744" y="904" type="line"/>
      <point x="707" y="898"/>
      <point x="674" y="895"/>
      <point x="644" y="895" type="curve" smooth="yes"/>
      <point x="464" y="895"/>
      <point x="449" y="969"/>
      <point x="449" y="1072" type="curve" smooth="yes"/>
      <point x="449" y="1658" type="line"/>
      <point x="89" y="1658" type="line"/>
      <point x="89" y="1071" type="line" smooth="yes"/>
      <point x="89" y="811"/>
      <point x="299" y="669"/>
      <point x="551" y="669" type="curve" smooth="yes"/>
      <point x="600" y="669"/>
      <point x="669" y="674"/>
      <point x="744" y="685" type="curve"/>
    </contour>
  </outline>
</glyph>
<glyph name="afii10045" format="1">
  <advance width="1700"/>
  <unicode hex="042B"/>
  <outline>
    <contour>
      <point x="129" y="0" type="line"/>
      <point x="541" y="0" type="line" smooth="yes"/>
      <point x="836" y="0"/>
      <point x="1067" y="77"/>
      <point x="1067" y="481" type="curve" smooth="yes"/>
      <point x="1067" y="816"/>
      <point x="890" y="958"/>
      <point x="572" y="958" type="curve" smooth="yes"/>
      <point x="496" y="958" type="line"/>
      <point x="496" y="1658" type="line"/>
      <point x="129" y="1658" type="line"/>
    </contour>
    <contour>
      <point x="496" y="242" type="line"/>
      <point x="496" y="705" type="line"/>
      <point x="538" y="705" type="line" smooth="yes"/>
      <point x="689" y="705"/>
      <point x="725" y="613"/>
      <point x="728" y="488" type="curve" smooth="yes"/>
      <point x="732" y="315"/>
      <point x="682" y="242"/>
      <point x="543" y="242" type="curve" smooth="yes"/>
    </contour>
    <contour>
      <point x="1204" y="0" type="line"/>
      <point x="1571" y="0" type="line"/>
      <point x="1571" y="1658" type="line"/>
      <point x="1204" y="1658" type="line"/>
    </contour>
  </outline>
</glyph>
<glyph name="afii10049" format="1">
  <advance width="1238"/>
  <unicode hex="042F"/>
  <outline>
    <contour>
      <point x="19" y="0" type="line"/>
      <point x="416" y="0" type="line"/>
      <point x="659" y="655" type="line"/>
      <point x="660" y="655"/>
      <point x="680" y="655"/>
      <point x="681" y="655" type="curve"/>
      <point x="743" y="655" type="line"/>
      <point x="743" y="0" type="line"/>
      <point x="1109" y="0" type="line"/>
      <point x="1109" y="1658" type="line"/>
      <point x="685" y="1658" type="line" smooth="yes"/>
      <point x="330" y="1658"/>
      <point x="122" y="1545"/>
      <point x="122" y="1164" type="curve" smooth="yes"/>
      <point x="122" y="964"/>
      <point x="210" y="812"/>
      <point x="336" y="738" type="curve"/>
    </contour>
    <contour>
      <point x="695" y="915" type="line"/>
      <point x="518" y="915"/>
      <point x="463" y="1020"/>
      <point x="463" y="1161" type="curve" smooth="yes"/>
      <point x="463" y="1324"/>
      <point x="539" y="1407"/>
      <point x="691" y="1407" type="curve" smooth="yes"/>
      <point x="743" y="1407" type="line"/>
      <point x="743" y="915" type="line"/>
    </contour>
  </outline>
</glyph>
<glyph name="afii10087" format="1">
  <advance width="904"/>
  <unicode hex="0445"/>
  <outline>
    <contour>
      <point x="14" y="0" type="line"/>
      <point x="293" y="0" type="line"/>
      <point x="410" y="324" type="line"/>
      <point x="555" y="0" type="line"/>
      <point x="892" y="0" type="line"/>
      <point x="624" y="599" type="line"/>
      <point x="860" y="1184" type="line"/>
      <point x="601" y="1184" type="line"/>
      <point x="490" y="900" type="line"/>
      <point x="362" y="1184" type="line"/>
      <point x="27" y="1184" type="line"/>
      <point x="266" y="649" type="line"/>
    </contour>
  </outline>
</glyph>
<glyph name="afii10090" format="1">
  <advance width="1458"/>
  <unicode hex="0448"/>
  <outline>
    <contour>
      <point x="104" y="0" type="line"/>
      <point x="1353" y="0" type="line"/>
      <point x="1353" y="1184" type="line"/>
      <point x="1041" y="1184" type="line"/>
      <point x="1041" y="226" type="line"/>
      <point x="884" y="226" type="line"/>
      <point x="884" y="1184" type="line"/>
      <point x="571" y="1184" type="line"/>
      <point x="571" y="226" type="line"/>
      <point x="417" y="226" type="line"/>
      <point x="417" y="1184" type="line"/>
      <point x="104" y="1184" type="line"/>
    </contour>
  </outline>
</glyph>
<glyph name="afii10108" format="1">
  <advance width="1061"/>
  <unicode hex="045B"/>
  <outline>
    <contour>
      <point x="115" y="0" type="line"/>
      <point x="449" y="0" type="line" smooth="yes"/>
      <point x="449" y="735" type="line"/>
      <point x="474" y="747"/>
      <point x="524" y="765"/>
      <point x="554" y="765" type="curve" smooth="yes"/>
      <point x="615" y="765"/>
      <point x="630" y="718"/>
      <point x="630" y="640" type="curve" smooth="yes"/>
      <point x="630" y="0" type="line"/>
      <point x="964" y="0" type="line"/>
      <point x="964" y="630" type="line" smooth="yes"/>
      <point x="964" y="810"/>
      <point x="917" y="989"/>
      <point x="699" y="989" type="curve" smooth="yes"/>
      <point x="610" y="989"/>
      <point x="521" y="954"/>
      <point x="449" y="927" type="curve"/>
      <point x="449" y="1658" type="line"/>
      <point x="115" y="1658" type="line"/>
    </contour>
    <contour>
      <point x="-17" y="1214" type="line"/>
      <point x="711" y="1214" type="line"/>
      <point x="711" y="1381" type="line"/>
      <point x="-17" y="1381" type="line"/>
    </contour>
  </outline>
</glyph>
<glyph name="uni04AF" format="1">
  <advance width="912"/>
  <unicode hex="04AF"/>
  <outline>
    <contour>
      <point x="319" y="-360" type="line"/>
      <point x="611" y="-360" type="line"/>
      <point x="611" y="165" type="line"/>
      <point x="894" y="1184" type="line"/>
      <point x="593" y="1184" type="line"/>
      <point x="463" y="572" type="line"/>
      <point x="306" y="1184" type="line"/>
      <point x="5" y="1184" type="line"/>
      <point x="319" y="162" type="line" smooth="yes"/>
    </contour>
  </outline>
</glyph>
<glyph name="uni2074" format="1">
  <advance width="926"/>
  <unicode hex="2074"/>
  <outline>
    <contour>
      <point x="440" y="449" type="line"/>
      <point x="736" y="449" type="line"/>
      <point x="736" y="741" type="line"/>
      <point x="863" y="741" type="line"/>
      <point x="863" y="896" type="line"/>
      <point x="736" y="896" type="line"/>
      <point x="736" y="1658" type="line"/>
      <point x="438" y="1658" type="line"/>
      <point x="75" y="894" type="line"/>
      <point x="75" y="741" type="line"/>
      <point x="440" y="741" type="line"/>
    </contour>
    <contour>
      <point x="250" y="896" type="line"/>
      <point x="440" y="1306" type="line"/>
      <point x="440" y="896" type="line"/>
    </contour>
  </outline>
</glyph>
<glyph name="estimated" format="1">
  <advance width="953"/>
  <unicode hex="212E"/>
  <outline>
    <contour>
      <point x="499" y="-21" type="curve" smooth="yes"/>
      <point x="749" y="-21"/>
      <point x="883" y="60"/>
      <point x="883" y="299" type="curve" smooth="yes"/>
      <point x="883" y="457" type="line"/>
      <point x="660" y="457" type="line"/>
      <point x="660" y="235" type="line" smooth="yes"/>
      <point x="660" y="132"/>
      <point x="649" y="60"/>
      <point x="514" y="60" type="curve" smooth="yes"/>
      <point x="375" y="60"/>
      <point x="364" y="135"/>
      <point x="364" y="239" type="curve" smooth="yes"/>
      <point x="364" y="571" type="line"/>
      <point x="884" y="571" type="line"/>
      <point x="884" y="844" type="line" smooth="yes"/>
      <point x="884" y="1104"/>
      <point x="757" y="1204"/>
      <point x="492" y="1204" type="curve" smooth="yes"/>
      <point x="234" y="1204"/>
      <point x="79" y="1099"/>
      <point x="79" y="844" type="curve" smooth="yes"/>
      <point x="79" y="333" type="line" smooth="yes"/>
      <point x="79" y="79"/>
      <point x="237" y="-21"/>
    </contour>
    <contour>
      <point x="364" y="662" type="line"/>
      <point x="364" y="957" type="line" smooth="yes"/>
      <point x="364" y="1064"/>
      <point x="383" y="1123"/>
      <point x="496" y="1123" type="curve" smooth="yes"/>
      <point x="609" y="1123"/>
      <point x="634" y="1064"/>
      <point x="634" y="971" type="curve" smooth="yes"/>
      <point x="634" y="662" type="line"/>
    </contour>
  </outline>
</glyph>
<glyph name="uni2215" format="1">
  <advance width="864"/>
  <outline>
    <contour>
      <point x="88" y="0" type="line"/>
      <point x="271" y="0" type="line"/>
      <point x="776" y="1658" type="line"/>
      <point x="593" y="1658" type="line"/>
    </contour>
  </outline>
</glyph>
